<svg xmlns="http://www.w3.org/2000/svg" width="512" height="512" viewBox="0 0 24 24" fill="currentColor">
  <path d="M12 .5C5.73.5.98 5.24.98 11.5c0 4.85 3.15 8.96 7.51 10.41.55.1.75-.24.75-.53 0-.26-.01-1.13-.02-2.05-3.06.66-3.71-1.3-3.71-1.3-.5-1.28-1.22-1.62-1.22-1.62-.99-.68.08-.67.08-.67 1.1.08 1.68 1.12 1.68 1.12.98 1.68 2.57 1.19 3.2.91.1-.71.38-1.19.69-1.46-2.44-.28-5.01-1.22-5.01-5.42 0-1.2.43-2.18 1.12-2.95-.11-.28-.49-1.42.11-2.96 0 0 .93-.3 3.05 1.13.88-.25 1.82-.37 2.76-.38.94.01 1.88.13 2.76.38 2.12-1.43 3.05-1.13 3.05-1.13.6 1.54.22 2.68.11 2.96.69.77 1.12 1.75 1.12 2.95 0 4.21-2.58 5.14-5.03 5.41.39.34.73 1 .73 2.02 0 1.46-.01 2.63-.01 2.99 0 .29.2.64.76.53 4.36-1.45 7.51-5.56 7.51-10.41C23.02 5.24 18.27.5 12 .5z"/>
</svg>

